<svg width="27" height="27" viewBox="0 0 27 27" fill="none" xmlns="http://www.w3.org/2000/svg">
<g id="carbon:copy-link">
<path id="Vector" d="M10.0803 16.0313C9.25472 16.0312 8.44768 15.7863 7.76124 15.3276C7.07479 14.8689 6.53975 14.217 6.22377 13.4543C5.90778 12.6915 5.82504 11.8522 5.98599 11.0425C6.14695 10.2327 6.54438 9.48886 7.12803 8.90494L11.4362 4.5976C12.2192 3.81461 13.2812 3.37473 14.3885 3.37473C15.4958 3.37473 16.5578 3.81461 17.3408 4.5976C18.1238 5.38059 18.5637 6.44256 18.5637 7.54988C18.5637 8.6572 18.1238 9.71917 17.3408 10.5022L16.8742 10.9679L15.6803 9.77569L16.1503 9.30573C16.6151 8.83869 16.8757 8.20641 16.8751 7.5475C16.8745 6.88858 16.6126 6.2568 16.1469 5.79066C15.6729 5.33831 15.0429 5.08593 14.3877 5.08593C13.7325 5.08593 13.1024 5.33831 12.6284 5.79066L8.32194 10.0972C8.09075 10.3281 7.90735 10.6023 7.78222 10.9042C7.65708 11.206 7.59268 11.5296 7.59268 11.8564C7.59268 12.1832 7.65708 12.5067 7.78222 12.8086C7.90735 13.1104 8.09075 13.3847 8.32194 13.6156C8.79593 14.0679 9.42596 14.3203 10.0812 14.3203C10.7364 14.3203 11.3664 14.0679 11.8404 13.6156L13.0334 14.8087C12.6465 15.1976 12.1862 15.5058 11.6793 15.7157C11.1724 15.9256 10.6289 16.0328 10.0803 16.0313Z" fill="#666666"/>
<path id="Vector_2" d="M16.8303 14.3437C16.0047 14.3437 15.1977 14.0988 14.5112 13.6401C13.8248 13.1814 13.2898 12.5295 12.9738 11.7667C12.6578 11.004 12.575 10.1647 12.736 9.35495C12.8969 8.5452 13.2944 7.80135 13.878 7.21743L14.3446 6.75L15.5377 7.9439L15.0719 8.40965C14.6055 8.87612 14.3434 9.50878 14.3434 10.1684C14.3434 10.8281 14.6055 11.4608 15.0719 11.9272C15.5459 12.3796 16.176 12.632 16.8312 12.632C17.4864 12.632 18.1164 12.3796 18.5904 11.9272L22.8977 7.6199C23.3633 7.15314 23.6247 6.52079 23.6247 5.86153C23.6247 5.20227 23.3633 4.56992 22.8977 4.10315C22.4237 3.6508 21.7937 3.39842 21.1385 3.39842C20.4833 3.39842 19.8533 3.6508 19.3793 4.10315L18.1862 2.90925C18.9692 2.12625 20.0312 1.68637 21.1385 1.68637C22.2458 1.68637 23.3078 2.12625 24.0908 2.90925C24.8738 3.69224 25.3137 4.75421 25.3137 5.86153C25.3137 6.96885 24.8738 8.03081 24.0908 8.81381L19.7843 13.1195C19.3973 13.5084 18.9371 13.8168 18.4302 14.0268C17.9233 14.2368 17.3798 14.3442 16.8312 14.3429" fill="#666666"/>
<path id="Vector_3" d="M20.25 25.3125H3.375C2.92758 25.3121 2.49862 25.1341 2.18225 24.8177C1.86588 24.5014 1.68795 24.0724 1.6875 23.625V6.75C1.68795 6.30258 1.86588 5.87362 2.18225 5.55725C2.49862 5.24088 2.92758 5.06295 3.375 5.0625H6.75V6.75H3.375V23.625H20.25V15.1875H21.9375V23.625C21.9371 24.0724 21.7591 24.5014 21.4427 24.8177C21.1264 25.1341 20.6974 25.3121 20.25 25.3125Z" fill="#666666"/>
</g>
</svg>
