<svg width="27" height="23" viewBox="0 0 27 23" fill="none" xmlns="http://www.w3.org/2000/svg">
<g id="fa-solid:download" clip-path="url(#clip0_15_24)">
<path id="Vector" d="M11.3906 0H15.6094C16.3107 0 16.875 0.480664 16.875 1.07812V8.625H21.4998C22.4385 8.625 22.9078 9.59082 22.2434 10.1568L14.2225 16.9939C13.827 17.3309 13.1783 17.3309 12.7828 16.9939L4.75137 10.1568C4.08691 9.59082 4.55625 8.625 5.49492 8.625H10.125V1.07812C10.125 0.480664 10.6893 0 11.3906 0ZM27 16.8906V21.9219C27 22.5193 26.4357 23 25.7344 23H1.26562C0.564258 23 0 22.5193 0 21.9219V16.8906C0 16.2932 0.564258 15.8125 1.26562 15.8125H9.00176L11.5857 18.0137C12.6457 18.9166 14.3543 18.9166 15.4143 18.0137L17.9982 15.8125H25.7344C26.4357 15.8125 27 16.2932 27 16.8906ZM20.4609 20.8438C20.4609 20.3496 19.9863 19.9453 19.4062 19.9453C18.8262 19.9453 18.3516 20.3496 18.3516 20.8438C18.3516 21.3379 18.8262 21.7422 19.4062 21.7422C19.9863 21.7422 20.4609 21.3379 20.4609 20.8438ZM23.8359 20.8438C23.8359 20.3496 23.3613 19.9453 22.7812 19.9453C22.2012 19.9453 21.7266 20.3496 21.7266 20.8438C21.7266 21.3379 22.2012 21.7422 22.7812 21.7422C23.3613 21.7422 23.8359 21.3379 23.8359 20.8438Z" fill="#666666"/>
</g>
<defs>
<clipPath id="clip0_15_24">
<rect width="27" height="23" fill="white"/>
</clipPath>
</defs>
</svg>
