<svg width="25" height="23" viewBox="0 0 25 23" fill="none" xmlns="http://www.w3.org/2000/svg">
<path id="Vector" d="M4.625 9V22.5H0.125V9H4.625ZM9.125 22.5C8.52826 22.5 7.95597 22.2629 7.53401 21.841C7.11205 21.419 6.875 20.8467 6.875 20.25V9C6.875 8.38125 7.1225 7.81875 7.53875 7.41375L14.9412 0L16.1337 1.1925C16.4375 1.49625 16.6287 1.9125 16.6287 2.37375L16.595 2.73375L15.5262 7.875H22.625C23.2217 7.875 23.794 8.11205 24.216 8.53401C24.6379 8.95597 24.875 9.52826 24.875 10.125V12.375C24.875 12.6675 24.8188 12.9375 24.7175 13.1962L21.32 21.1275C20.9825 21.9375 20.1838 22.5 19.25 22.5H9.125ZM9.125 20.25H19.2838L22.625 12.375V10.125H12.7362L14.0075 4.14L9.125 9.03375V20.25Z" fill="#666666"/>
</svg>
