<svg width="28" height="27" viewBox="0 0 28 27" fill="none" xmlns="http://www.w3.org/2000/svg">
<g id="mdi:like" clip-path="url(#clip0_15_72)">
<g id="Group 1">
<path id="Vector" d="M24.875 10.125C24.875 9.52826 24.6379 8.95597 24.216 8.53401C23.794 8.11205 23.2217 7.875 22.625 7.875H15.515L16.595 2.73375C16.6175 2.62125 16.6287 2.4975 16.6287 2.37375C16.6287 1.9125 16.4375 1.485 16.1337 1.18125L14.9412 0L7.53875 7.4025C7.1225 7.81875 6.875 8.38125 6.875 9V20.25C6.875 20.8467 7.11205 21.419 7.53401 21.841C7.95597 22.2629 8.52826 22.5 9.125 22.5H19.25C20.1838 22.5 20.9825 21.9375 21.32 21.1275L24.7175 13.1962C24.8188 12.9375 24.875 12.6675 24.875 12.375V10.125ZM0.125 22.5H4.625V9H0.125V22.5Z" fill="#666666"/>
</g>
</g>
<defs>
<clipPath id="clip0_15_72">
<rect width="27" height="27" fill="white" transform="translate(0.125)"/>
</clipPath>
</defs>
</svg>
